<?xml version="1.0" standalone="no"?>
<!DOCTYPE svg PUBLIC "-//W3C//DTD SVG 20010904//EN"
 "http://www.w3.org/TR/2001/REC-SVG-20010904/DTD/svg10.dtd">
<svg version="1.0" xmlns="http://www.w3.org/2000/svg"
 width="1024.000000pt" height="1024.000000pt" viewBox="0 0 1024.000000 1024.000000"
 preserveAspectRatio="xMidYMid meet">
<metadata>
Created by potrace 1.11, written by Peter Selinger 2001-2013
</metadata>
<g transform="translate(0.000000,1024.000000) scale(0.100000,-0.100000)"
fill="#000000" stroke="none">
<path d="M4789 9515 c-3 -2 -36 -6 -74 -10 -39 -3 -86 -8 -105 -10 -19 -3 -55
-7 -80 -10 -25 -4 -58 -8 -75 -11 -16 -3 -43 -7 -60 -10 -36 -5 -70 -12 -70
-14 0 -1 -16 -3 -35 -5 -19 -2 -78 -13 -130 -25 -52 -12 -102 -23 -110 -25 -8
-2 -17 -4 -20 -6 -3 -1 -9 -3 -15 -4 -5 -2 -12 -4 -15 -5 -3 -1 -14 -3 -25 -5
-11 -2 -49 -13 -84 -25 -35 -11 -67 -20 -72 -20 -4 0 -20 -5 -36 -12 -32 -13
-25 -11 -83 -27 -25 -7 -58 -19 -75 -26 -16 -7 -46 -18 -65 -25 -19 -7 -48
-19 -65 -25 -16 -7 -52 -22 -80 -33 -27 -11 -81 -35 -120 -53 -38 -18 -72 -33
-75 -34 -3 0 -30 -14 -60 -30 -30 -16 -57 -29 -60 -30 -3 0 -12 -5 -20 -10 -8
-5 -37 -21 -65 -36 -27 -14 -66 -35 -86 -47 -20 -11 -47 -26 -60 -34 -13 -7
-26 -15 -29 -18 -3 -3 -14 -10 -25 -17 -60 -36 -147 -92 -197 -127 -31 -23
-66 -48 -78 -56 -59 -40 -225 -172 -228 -180 -2 -6 -8 -10 -13 -10 -5 0 -17
-8 -27 -17 -11 -10 -59 -54 -107 -98 -143 -130 -278 -268 -395 -405 -35 -41
-68 -79 -72 -85 -34 -38 -208 -277 -208 -284 0 -5 -3 -11 -8 -13 -20 -8 -205
-316 -282 -468 -67 -132 -80 -160 -126 -266 -84 -196 -199 -534 -220 -644 -3
-14 -10 -43 -16 -65 -12 -47 -12 -48 -23 -100 -8 -43 -12 -63 -20 -97 -2 -12
-7 -38 -10 -58 -3 -20 -8 -47 -10 -60 -3 -14 -7 -41 -10 -60 -2 -19 -7 -51
-10 -70 -24 -159 -30 -276 -30 -590 0 -329 8 -463 39 -650 2 -14 8 -47 12 -75
4 -27 9 -57 11 -65 1 -8 5 -26 7 -40 2 -14 9 -47 16 -75 6 -27 13 -61 15 -75
2 -14 4 -25 5 -25 1 0 3 -7 5 -15 17 -90 116 -422 144 -485 5 -11 28 -69 52
-130 23 -60 66 -162 96 -225 56 -120 59 -127 113 -225 64 -116 72 -131 124
-213 28 -46 56 -91 61 -101 16 -27 148 -216 155 -221 3 -3 17 -21 30 -40 13
-19 27 -37 30 -40 3 -3 17 -21 31 -40 15 -19 37 -46 49 -60 12 -14 34 -40 48
-58 14 -19 39 -48 56 -66 17 -17 72 -74 122 -126 80 -84 155 -157 291 -282 23
-21 46 -38 52 -38 6 0 11 -3 11 -8 0 -4 23 -25 51 -47 28 -22 56 -44 63 -50 6
-5 29 -23 51 -39 22 -17 42 -33 45 -36 7 -9 357 -240 363 -240 3 0 34 -17 68
-38 79 -48 298 -159 399 -202 41 -18 89 -38 105 -45 102 -45 427 -155 534
-181 9 -2 34 -8 56 -14 22 -6 51 -13 65 -15 14 -3 34 -7 45 -10 11 -2 22 -5
25 -5 3 -1 23 -5 45 -11 22 -5 56 -12 75 -14 19 -3 42 -8 51 -11 9 -2 38 -7
64 -10 26 -2 50 -6 54 -8 3 -3 38 -7 76 -11 39 -4 72 -9 75 -10 46 -27 881
-27 1019 0 17 3 55 8 161 19 9 1 20 5 25 8 6 3 22 5 38 4 15 -1 27 1 27 4 0 3
8 6 18 6 26 1 92 13 137 25 22 6 49 13 60 15 21 3 57 11 65 14 3 1 8 2 11 2 4
-1 22 3 40 9 19 6 45 12 59 15 49 10 351 109 397 130 17 8 35 14 40 14 5 0 27
9 49 19 21 11 42 17 46 14 5 -2 8 1 8 6 0 6 4 11 10 11 30 0 375 169 520 255
91 54 280 174 290 185 3 3 28 21 55 40 56 38 54 37 111 82 22 18 55 44 74 58
18 14 41 32 50 40 10 8 39 33 64 54 264 220 610 608 786 881 25 39 48 75 53
80 18 24 57 86 57 92 0 4 6 14 14 22 33 39 238 436 229 445 -3 3 -1 6 5 6 7 0
12 9 12 20 0 11 4 20 9 20 5 0 11 10 15 23 3 13 13 41 23 63 9 21 17 41 18 44
1 3 6 16 12 30 10 25 63 170 88 245 19 54 65 210 70 236 2 11 7 29 10 39 3 10
7 27 9 37 2 10 9 38 16 63 7 25 14 56 16 70 2 14 7 36 10 50 4 14 8 34 9 45 2
11 10 58 18 105 9 47 18 110 22 140 3 30 8 66 10 80 14 80 20 221 20 505 0
322 -7 462 -31 605 -2 14 -9 55 -14 91 -5 36 -12 72 -14 80 -3 8 -7 32 -10 54
-3 22 -10 63 -16 90 -7 28 -14 61 -16 74 -10 48 -63 245 -82 301 -3 8 -6 20
-7 25 -21 82 -139 390 -196 510 -18 39 -34 72 -34 75 -2 11 -115 226 -154 292
-9 14 -34 57 -55 95 -22 37 -42 70 -46 73 -3 3 -17 23 -30 45 -49 81 -222 317
-292 397 -13 15 -39 45 -58 68 -156 187 -452 469 -640 610 -18 14 -58 44 -89
67 -31 23 -68 51 -83 62 -14 12 -31 21 -36 21 -6 0 -12 4 -14 8 -4 9 -217 145
-308 197 -80 45 -438 220 -465 228 -11 3 -54 20 -95 37 -120 51 -420 147 -514
166 -10 2 -33 8 -50 13 -17 6 -67 17 -111 26 -44 9 -89 19 -100 21 -11 2 -33
6 -50 9 -16 2 -41 6 -54 9 -13 3 -49 8 -80 12 -31 3 -58 8 -61 9 -3 2 -39 6
-80 10 -41 4 -84 10 -95 12 -23 6 -741 14 -746 8z m-1813 -2633 c28 -53 80
-151 114 -217 35 -66 84 -160 110 -210 26 -49 78 -148 115 -220 37 -71 80
-152 95 -180 15 -27 67 -126 115 -220 48 -93 91 -174 95 -180 4 -5 38 -70 76
-143 l68 -133 74 3 74 3 27 50 c15 28 58 109 96 180 37 72 84 162 105 200 21
39 67 126 102 195 146 279 202 388 233 445 18 33 70 132 115 220 46 88 100
192 121 230 l37 70 176 3 c97 1 176 0 176 -4 0 -4 -13 -30 -29 -58 -24 -43
-158 -294 -531 -1001 -26 -49 -84 -157 -127 -240 -44 -82 -114 -215 -156 -295
l-76 -146 33 -59 c18 -33 72 -136 121 -230 48 -93 102 -197 120 -230 60 -113
143 -270 215 -410 89 -172 174 -333 210 -400 48 -87 105 -195 190 -360 46 -88
87 -166 93 -172 11 -14 15 -14 -148 -14 -226 0 -209 -3 -226 34 -8 17 -57 113
-108 212 -89 172 -143 275 -324 625 -44 85 -110 214 -147 285 -37 72 -107 207
-155 300 -49 94 -103 197 -121 230 l-32 60 -63 3 -64 3 -25 -48 c-13 -26 -54
-104 -91 -173 -36 -69 -119 -228 -184 -355 -65 -126 -137 -266 -160 -310 -41
-78 -197 -380 -361 -700 l-82 -160 -183 -3 c-146 -2 -180 0 -172 10 6 7 47 85
93 173 45 88 102 196 125 240 42 79 584 1109 703 1336 l60 116 -42 79 c-23 43
-73 138 -110 209 -172 327 -362 687 -401 760 -112 210 -365 688 -365 692 0 1
78 3 173 3 l172 0 51 -98z m4058 -928 c411 -63 632 -257 692 -609 13 -79 13
-343 -1 -410 -40 -198 -106 -317 -220 -395 -48 -33 -134 -65 -195 -74 -25 -4
-323 -6 -662 -6 l-618 -1 -1 -27 c-1 -34 2 -90 6 -113 2 -9 6 -39 10 -66 27
-199 103 -382 195 -474 89 -90 242 -156 410 -177 101 -13 571 -4 660 13 8 1
49 6 91 9 42 4 115 13 162 20 99 15 88 26 107 -114 6 -47 12 -89 13 -95 5 -29
-327 -105 -528 -122 -127 -10 -508 -10 -600 0 -332 37 -577 192 -698 441 -62
128 -116 317 -132 466 -3 30 -10 89 -15 130 -8 75 -6 583 3 630 3 14 8 48 11
75 37 297 118 510 249 652 118 129 327 224 552 251 109 14 410 11 509 -4z"/>
<path d="M6658 5675 c-1 -1 -31 -6 -65 -9 -35 -4 -93 -16 -130 -27 -304 -93
-411 -300 -437 -842 l-4 -68 592 3 c577 3 592 4 636 24 25 12 58 34 74 50 66
66 106 216 99 379 -13 336 -194 480 -614 490 -81 2 -149 2 -151 0z"/>
</g>
</svg>
